{"title":"Punjab Bolda 2013 Punjabi Movie DVDSCR RIP GOPI SAHI  {Team Tell","uid":8867987,"size":381149160,"categoryP":"video","categoryS":"movies","magnet":"?xt=urn:btih:f1ec185b117a2e3447d0d50def3736299e95dd4c&amp;dn=Punjab+Bolda+2013+Punjabi+Movie+DVDSCR+RIP+GOPI+SAHI++%7BTeam+Tell&amp;tr=udp%3A%2F%2Ftracker.openbittorrent.com%3A80&amp;tr=udp%3A%2F%2Fopen.demonii.com%3A1337&amp;tr=udp%3A%2F%2Ftracker.coppersurfer.tk%3A6969&amp;tr=udp%3A%2F%2Fexodus.desync.com%3A6969","seeders":0,"leechers":0,"uploader":"jatt13","files":7,"time":1377976880,"description":"[size=7][color=lime]Punjab Bolda 2013 Punjabi Movie DVDSCR RIP GOPI SAHI  {Team Telly }[/color][/size]\n\n[img]http://imageshack.us/a/img839/5360/e2rk.jpg[/img]\n\nwikipedia &lt;a href=&quot;\nhttp://en.wikipedia.org/wiki/Punjab_Bolda&quot; rel=&quot;nofollow&quot; target=&quot;_NEW&quot;&gt;\nhttp://en.wikipedia.org/wiki/Punjab_Bolda&lt;/a&gt;\n\nimdb http://www.imdb.com/title/tt3119292/\n\n[img]http://imageshack.us/a/img541/162/wl2i.jpg[/img]\n[img]http://imageshack.us/a/img838/5695/pfpv.png[/img]\n[img]http://imageshack.us/a/img825/668/7skw.png[/img]\n[img]http://imageshack.us/a/img191/996/u85m.png[/img]\n[img]http://imageshack.us/a/img5/1006/gfbw.png[/img]\n\nVideo\nID                             : 0\nFormat                         : AVC\nFormat/Info                    : Advanced Video Codec\nFormat profile                 : &lt;a class=&quot;__cf_email__&quot; href=&quot;/cdn-cgi/l/email-protection&quot; data-cfemail=&quot;90ddf1f9fed0dca5bea1&quot;&gt;[email&amp;#160;protected]&lt;/a&gt;&lt;script cf-hash='f9e31' type=&quot;text/javascript&quot;&gt;\n/* &lt;![CDATA[ */!function(){try{var t=&quot;currentScript&quot;in document?document.currentScript:function(){for(var t=document.getElementsByTagName(&quot;script&quot;),e=t.length;e--;)if(t[e].getAttribute(&quot;cf-hash&quot;))return t[e]}();if(t&amp;&amp;t.previousSibling){var e,r,n,i,c=t.previousSibling,a=c.getAttribute(&quot;data-cfemail&quot;);if(a){for(e=&quot;&quot;,r=parseInt(a.substr(0,2),16),n=2;a.length-n;n+=2)i=parseInt(a.substr(n,2),16)^r,e+=String.fromCharCode(i);e=document.createTextNode(e),c.parentNode.replaceChild(e,c)}}}catch(u){}}();/* ]]&gt; */&lt;/script&gt;\nFormat settings, CABAC         : Yes\nFormat settings, ReFrames      : 1 frame\nCodec ID                       : H264\nDuration                       : 59s 920ms\nBit rate                       : 309 Kbps\nWidth                          : 640 pixels\nHeight                         : 360 pixels\nDisplay aspect ratio           : 16:9\nFrame rate                     : 25.000 fps\nColor space                    : YUV\nChroma subsampling             : 4:2:0\nBit depth                      : 8 bits\nScan type                      : Progressive\nBits/(Pixel*Frame)             : 0.054\nStream size                    : 2.21 MiB (81%)\n\nAudio\nID                             : 1\nFormat                         : MPEG Audio\nFormat version                 : Version 1\nFormat profile                 : Layer 2\nCodec ID                       : 50\nDuration                       : 59s 955ms\nBit rate mode                  : Constant\nBit rate                       : 64.0 Kbps\nChannel(s)                     : 2 channels\nSampling rate                  : 44.1 KHz\nCompression mode               : Lossy\nStream size                    : 466 KiB (17%)\nAlignment                      : Aligned on interleaves\nInterleave, duration           : 41 ms (1.02 video frame)\nInterleave, preload duration   : 52 ms","torrent":{"xt":"urn:btih:f1ec185b117a2e3447d0d50def3736299e95dd4c","amp;dn":"Punjab+Bolda+2013+Punjabi+Movie+DVDSCR+RIP+GOPI+SAHI++%7BTeam+Tell","amp;tr":["udp%3A%2F%2Ftracker.openbittorrent.com%3A80","udp%3A%2F%2Fopen.demonii.com%3A1337","udp%3A%2F%2Ftracker.coppersurfer.tk%3A6969","udp%3A%2F%2Fexodus.desync.com%3A6969"],"infoHash":"f1ec185b117a2e3447d0d50def3736299e95dd4c","infoHashBuffer":{"type":"Buffer","data":[241,236,24,91,17,122,46,52,71,208,213,13,239,55,54,41,158,149,221,76]},"announce":[],"urlList":[]}}